<?xml version="1.0" encoding="UTF-8"?><svg id="Camada_1" xmlns="http://www.w3.org/2000/svg" viewBox="0 0 45.82 45.74"><defs><style>.cls-1{fill:#fff;}</style></defs><path class="cls-1" d="m.76,15.2h9.51v30.54H.76V15.2ZM5.51,0C8.54,0,11.01,2.47,11.01,5.5s-2.47,5.51-5.5,5.51c-3.04,0-5.5-2.47-5.51-5.51C0,2.46,2.46,0,5.5,0c0,0,0,0,0,0m10.7,15.2h9.1v4.17h.13c1.27-2.4,4.36-4.93,9-4.93,9.61,0,11.39,6.33,11.39,14.55v16.75h-9.49v-14.86c0-3.54-.06-8.1-4.93-8.1s-5.7,3.86-5.7,7.84v15.11h-9.48V15.19h-.01Z"/></svg>