<?xml version="1.0" encoding="UTF-8"?><svg id="Camada_1" xmlns="http://www.w3.org/2000/svg" viewBox="0 0 1244.94 212.22"><defs><style>.cls-1{fill:#fff;}.cls-2{fill:#ff4800;}</style></defs><path class="cls-1" d="m19.62,158.68L0,52.13h31.6l10.53,79.3,38.41-79.3h34.28l-56.79,106.56H19.62Z"/><path class="cls-1" d="m106.13,158.68l18.59-106.56h31.6l-18.59,106.56h-31.6ZM127.61,25.28c0-10.74,7.23-18.38,20.24-18.38,10.12,0,16.11,5.99,16.11,13.42,0,10.74-7.23,18.38-20.24,18.38-10.12,0-16.11-5.99-16.11-13.42Z"/><path class="cls-1" d="m155.9,158.68l18.59-106.56h29.94l-3.92,21.48c7.43-16.94,17.35-22.92,30.98-22.92,2.89,0,9.71.62,11.56,1.45l-4.75,27.47-13.01-.21c-15.49,0-25.81,10.53-29.32,29.94l-8.47,49.35h-31.6Z"/><path class="cls-1" d="m239.73,113.87c0-37.38,20.03-63.81,54.72-63.81,15.9,0,26.23,6.81,30.98,20.03l3.1-17.97h29.94l-17.14,97.26c-6.61,38-27.88,51.83-61.54,51.83-24.57,0-44.61-9.5-44.61-33.87,0-1.65,0-3.3.21-4.96h28.7c0,11.57,6.2,18.38,19.21,18.38,14.04,0,22.51-7.23,24.98-22.51l3.1-17.14c-5.78,7.23-16.52,13.42-30.77,13.42-25.81,0-40.89-17.97-40.89-40.68Zm78.68-21.06c0-12.6-6.81-20.65-18.38-20.65-17.35,0-28.7,19.2-28.7,39.65,0,12.59,6.81,20.65,18.17,20.65,17.55,0,28.91-19.2,28.91-39.65Z"/><path class="cls-1" d="m358.04,158.68l18.59-106.56h31.6l-18.59,106.56h-31.6Zm21.48-133.4c0-10.74,7.23-18.38,20.24-18.38,10.12,0,16.11,5.99,16.11,13.42,0,10.74-7.23,18.38-20.24,18.38-10.12,0-16.11-5.99-16.11-13.42Z"/><path class="cls-1" d="m407.81,158.68l25.81-147.03h31.59l-25.81,147.03h-31.6Z"/><path class="cls-1" d="m698.16,158.68l11.36-64.22c.21-1.86.41-3.92.41-5.58,0-8.67-4.34-13.42-12.8-13.42-12.19,0-21.27,8.88-23.95,24.99l-10.12,58.23h-31.59l18.59-106.56h29.94l-2.48,14.66c7.64-10.94,18.59-16.73,32.01-16.73,21.06,0,33.45,10.53,33.45,29.53,0,2.69-.41,5.78-.83,8.67l-12.39,70.42h-31.6Z"/><path class="cls-1" d="m752.25,116.97c0-37.38,20.44-66.91,55.55-66.91,14.87,0,25.19,6.2,29.74,17.55l9.91-55.96h31.6l-25.81,147.03h-29.94l2.69-15.07c-7.44,10.94-18.79,17.14-33.04,17.14-27.05,0-40.68-19.62-40.68-43.78Zm79.5-21.06c0-14.45-6.81-22.1-18.59-22.1-17.97,0-29.32,19-29.32,41.1,0,14.45,6.81,22.09,18.59,22.09,17.97,0,29.32-19,29.32-41.09Z"/><path class="cls-1" d="m871.39,158.68l18.59-106.56h29.94l-3.92,21.48c7.43-16.94,17.35-22.92,30.98-22.92,2.89,0,9.71.62,11.56,1.45l-4.75,27.47-13.01-.21c-15.49,0-25.81,10.53-29.32,29.94l-8.47,49.35h-31.6Z"/><path class="cls-1" d="m954.4,116.97c0-41.09,25.81-66.91,62.98-66.91,30.36,0,47.7,18.38,47.7,43.78,0,6.61-1.03,12.8-2.89,18.59h-76.82c-.21,2.06-.21,4.13-.21,5.99,0,13.84,7.23,21.27,20.24,21.27,10.94,0,19.41-5.37,23.95-15.28h29.33c-6.4,21.89-24.37,36.35-55.34,36.35s-48.94-17.14-48.94-43.78Zm34.48-24.78h45.43c0-13.22-6.2-21.06-19-21.06s-22.3,7.23-26.43,21.06Z"/><path class="cls-1" d="m1158,158.68l-7.02-64.01-29.33,64.01h-33.87l-17.14-106.56h32.22l9.09,70.62,31.18-70.62h27.88l6.61,70.62,33.66-70.62h33.66l-54.31,106.56h-32.63Z"/><path class="cls-1" d="m600.57,50.06l-3.11,17.55c-4.54-11.36-14.87-17.55-29.74-17.55-35.11,0-55.55,29.53-55.55,66.91,0,24.16,13.63,43.78,40.68,43.78,14.25,0,25.61-6.2,33.04-17.14l-2.68,15.07h29.94l19.07-108.62h-31.65Zm-38.21,86.94c-11.77,0-18.59-7.64-18.59-22.1,0-22.09,11.36-41.09,29.32-41.09,11.77,0,18.59,7.64,18.59,22.1,0,22.1-11.36,41.09-29.32,41.09Z"/><polygon class="cls-2" points="487.98 .15 459.64 0 432.52 150.56 432.51 150.56 421.4 212.22 449.77 212.22 460.85 150.71 460.86 150.71 487.98 .15"/><polygon class="cls-2" points="546.09 .15 517.75 0 490.62 150.56 490.62 150.56 479.51 212.22 507.88 212.22 518.96 150.71 518.97 150.71 546.09 .15"/></svg>