<?xml version="1.0" encoding="UTF-8"?><svg id="Camada_1" xmlns="http://www.w3.org/2000/svg" viewBox="0 0 1365.59 214.65"><defs><style>.cls-1{fill:#fff;}.cls-2{fill:#ff4800;}</style></defs><polygon class="cls-2" points="598.85 0 554.54 0 452.27 189.62 496.58 189.62 598.85 0"/><polygon class="cls-2" points="670.53 0 626.22 0 523.95 189.62 568.26 189.62 670.53 0"/><path class="cls-1" d="m28.7,170.53L0,18.03h35.13l18.85,118.23L114.59,18.03h38.77l-82.25,152.5H28.7Z"/><path class="cls-1" d="m136.86,170.53l19.28-110.52h32.77l-19.28,110.52h-32.77Zm22.28-138.37c0-11.14,7.49-19.06,20.99-19.06,10.49,0,16.7,6.21,16.7,13.92,0,11.14-7.49,19.06-20.99,19.06-10.49,0-16.7-6.21-16.7-13.92Z"/><path class="cls-1" d="m188.47,170.53l19.28-110.52h31.06l-4.07,22.28c7.71-17.56,17.99-23.78,32.13-23.78,3,0,10.07.64,11.99,1.5l-4.93,28.49-13.49-.21c-16.06,0-26.78,10.92-30.41,31.06l-8.78,51.19h-32.77Z"/><path class="cls-1" d="m275.42,124.05c0-38.77,20.78-66.18,56.76-66.18,16.49,0,27.2,7.07,32.13,20.78l3.21-18.63h31.06l-17.78,100.88c-6.86,39.41-28.92,53.76-63.83,53.76-25.49,0-46.26-9.85-46.26-35.13,0-1.71,0-3.43.21-5.14h29.77c0,12,6.43,19.06,19.92,19.06,14.57,0,23.35-7.5,25.92-23.35l3.21-17.78c-6,7.5-17.13,13.92-31.91,13.92-26.78,0-42.41-18.63-42.41-42.2Zm81.6-21.85c0-13.06-7.06-21.42-19.06-21.42-17.99,0-29.77,19.92-29.77,41.12,0,13.06,7.06,21.42,18.85,21.42,18.21,0,29.98-19.92,29.98-41.12Z"/><path class="cls-1" d="m398.14,170.53l19.28-110.52h32.77l-19.28,110.52h-32.77Zm22.27-138.37c0-11.14,7.49-19.06,20.99-19.06,10.5,0,16.71,6.21,16.71,13.92,0,11.14-7.5,19.06-20.99,19.06-10.5,0-16.71-6.21-16.71-13.92Z"/><path class="cls-1" d="m449.76,170.53l26.77-152.5h32.77l-26.77,152.5h-32.77Z"/><path class="cls-1" d="m685.59,170.54l-4.92-28.27h-63.19l-14.78,28.27h-37.05l82.25-152.5h42.41l28.7,152.5h-33.41Zm-20.13-121.66l-34.91,67.04h46.27l-11.35-67.04Z"/><path class="cls-1" d="m798.46,170.54l11.78-66.61c.21-1.93.43-4.07.43-5.78,0-9-4.5-13.92-13.28-13.92-12.64,0-22.06,9.21-24.85,25.92l-10.5,60.4h-32.77l19.28-110.52h31.06l-2.57,15.21c7.92-11.35,19.28-17.35,33.2-17.35,21.85,0,34.7,10.92,34.7,30.63,0,2.79-.43,6-.86,9l-12.85,73.04h-32.77Z"/><path class="cls-1" d="m854.57,127.27c0-38.77,21.2-69.4,57.62-69.4,15.42,0,26.13,6.43,30.84,18.21l10.28-58.05h32.77l-26.77,152.5h-31.06l2.79-15.64c-7.71,11.35-19.49,17.78-34.27,17.78-28.06,0-42.19-20.35-42.19-45.41Zm82.46-21.85c0-14.99-7.07-22.92-19.28-22.92-18.63,0-30.41,19.71-30.41,42.62,0,14.99,7.07,22.92,19.28,22.92,18.63,0,30.41-19.71,30.41-42.62Z"/><path class="cls-1" d="m978.14,170.54l19.28-110.52h31.06l-4.07,22.28c7.71-17.56,17.99-23.78,32.13-23.78,3,0,10.07.64,11.99,1.5l-4.93,28.49-13.49-.21c-16.06,0-26.77,10.92-30.41,31.06l-8.78,51.19h-32.77Z"/><path class="cls-1" d="m1064.24,127.27c0-42.62,26.77-69.4,65.33-69.4,31.49,0,49.48,19.06,49.48,45.41,0,6.85-1.07,13.28-3,19.28h-79.68c-.21,2.14-.21,4.28-.21,6.21,0,14.35,7.5,22.06,20.99,22.06,11.35,0,20.13-5.57,24.85-15.85h30.42c-6.64,22.7-25.28,37.7-57.4,37.7s-50.76-17.78-50.76-45.41Zm35.77-25.7h47.12c0-13.71-6.43-21.85-19.71-21.85s-23.13,7.5-27.42,21.85Z"/><path class="cls-1" d="m1275.42,170.54l-7.28-66.4-30.42,66.4h-35.13l-17.78-110.52h33.41l9.42,73.25,32.34-73.25h28.92l6.85,73.25,34.91-73.25h34.91l-56.33,110.52h-33.84Z"/></svg>