<?xml version="1.0" encoding="UTF-8"?><svg id="Camada_1" xmlns="http://www.w3.org/2000/svg" viewBox="0 0 279.59 212.22"><defs><style>.cls-1{fill:#ff4800;}</style></defs><path d="m19.62,158.68L0,52.13h31.6l10.53,79.3,38.41-79.3h34.28l-56.79,106.56H19.62Z"/><path d="m247.93,50.06l-3.11,17.55c-4.54-11.36-14.87-17.55-29.74-17.55-35.11,0-55.55,29.53-55.55,66.91,0,24.16,13.63,43.78,40.68,43.78,14.25,0,25.61-6.2,33.04-17.14l-2.68,15.07h29.94l19.07-108.62h-31.65Zm-38.21,86.94c-11.77,0-18.59-7.64-18.59-22.1,0-22.09,11.36-41.09,29.32-41.09,11.77,0,18.59,7.64,18.59,22.1,0,22.1-11.36,41.09-29.32,41.09Z"/><polygon class="cls-1" points="135.82 .15 107.47 0 80.35 150.56 80.35 150.56 69.24 212.22 97.61 212.22 108.69 150.71 108.69 150.71 135.82 .15"/><polygon class="cls-1" points="193.93 .15 165.58 0 138.46 150.56 138.45 150.56 127.35 212.22 155.72 212.22 166.8 150.71 166.8 150.71 193.93 .15"/></svg>